<svg xmlns="http://www.w3.org/2000/svg" width="107" height="65"><g fill="#363636"><path d="M98.97 4.07c.75 1.44 1.2 3.08 1.2 4.82V30c0 4.6-3.1 8.52-7.24 9.9-1.32 3.98-3.78 7.85-8.05 10.43-8.68 5.23-31.12 4.83-31.2 4.83-.08 0-22.5.4-31.2-4.83-4.2-2.55-6.7-6.35-8.03-10.28C10.03 38.85 6.7 34.8 6.7 30V8.9c0-1.7.42-3.3 1.13-4.7C4.17 5.1 0 6.92 0 10.43v30c0 10.24 11.84 24.42 53.66 24.42 41.82 0 53.65-14.18 53.65-24.43v-30c0-3.67-4.56-5.48-8.33-6.35z"/><path d="M20.56 38.46h65.52c5.57 0 10.08-4.5 10.08-10.08V9.94c0-5.57-4.5-10.08-10.08-10.08H20.56C15-.14 10.5 4.36 10.5 9.94v18.44c0 5.57 4.5 10.08 10.06 10.08zm63.13-29c.86 0 1.56.7 1.56 1.58 0 .86-.7 1.57-1.57 1.57s-1.57-.7-1.57-1.56c0-.87.7-1.57 1.56-1.57zm0 4.05c.86 0 1.56.7 1.56 1.57 0 .87-.7 1.57-1.57 1.57s-1.57-.7-1.57-1.57c0-.86.7-1.56 1.56-1.56zm0 4.05c.86 0 1.56.7 1.56 1.56 0 .88-.7 1.58-1.57 1.58s-1.57-.7-1.57-1.57c0-.85.7-1.55 1.56-1.55zm0 3.82c.86 0 1.56.7 1.56 1.57 0 .87-.7 1.57-1.57 1.57s-1.57-.7-1.57-1.56c0-.86.7-1.57 1.56-1.57zm0 4.04c.86 0 1.56.7 1.56 1.58 0 .87-.7 1.57-1.57 1.57s-1.57-.7-1.57-1.57c0-.87.7-1.57 1.56-1.57zM79.65 9.48c.86 0 1.56.7 1.56 1.57 0 .86-.7 1.57-1.56 1.57-.87 0-1.57-.7-1.57-1.56 0-.87.7-1.57 1.56-1.57zm0 15.94c.86 0 1.56.7 1.56 1.58 0 .87-.7 1.57-1.56 1.57-.87 0-1.57-.7-1.57-1.57 0-.87.7-1.57 1.56-1.57zM75.62 9.48c.86 0 1.57.7 1.57 1.57 0 .86-.72 1.57-1.58 1.57-.87 0-1.57-.7-1.57-1.56 0-.87.7-1.57 1.57-1.57zm0 4.04c.86 0 1.57.7 1.57 1.57 0 .87-.72 1.57-1.58 1.57-.87 0-1.57-.7-1.57-1.57 0-.86.7-1.56 1.57-1.56zm0 4.05c.86 0 1.57.7 1.57 1.56 0 .88-.72 1.58-1.58 1.58-.87 0-1.57-.7-1.57-1.57 0-.85.7-1.55 1.57-1.55zm0 3.82c.86 0 1.57.7 1.57 1.57 0 .87-.72 1.57-1.58 1.57-.87 0-1.57-.7-1.57-1.56 0-.86.7-1.57 1.57-1.57zm0 4.04c.86 0 1.57.7 1.57 1.58 0 .87-.72 1.57-1.58 1.57-.87 0-1.57-.7-1.57-1.57 0-.87.7-1.57 1.57-1.57zM67.96 9.48c.87 0 1.57.7 1.57 1.57 0 .86-.7 1.57-1.56 1.57s-1.57-.7-1.57-1.56c0-.87.7-1.57 1.56-1.57zm0 8.08c.87 0 1.57.7 1.57 1.56 0 .88-.7 1.58-1.56 1.58s-1.57-.7-1.57-1.57c0-.85.7-1.55 1.56-1.55zm0 3.88c.87 0 1.57.7 1.57 1.56 0 .86-.7 1.56-1.56 1.56s-1.57-.7-1.57-1.56c0-.87.7-1.57 1.56-1.57zm0 3.98c.87 0 1.57.7 1.57 1.58 0 .87-.7 1.57-1.56 1.57s-1.57-.7-1.57-1.57c0-.87.7-1.57 1.56-1.57zM63.94 9.48c.86 0 1.57.7 1.57 1.57 0 .86-.7 1.57-1.57 1.57-.87 0-1.57-.7-1.57-1.56 0-.87.7-1.57 1.57-1.57zm0 8.08c.86 0 1.57.7 1.57 1.56 0 .88-.7 1.58-1.57 1.58-.87 0-1.57-.7-1.57-1.57 0-.85.7-1.55 1.57-1.55zm0 7.86c.86 0 1.57.7 1.57 1.58 0 .87-.7 1.57-1.57 1.57-.87 0-1.57-.7-1.57-1.57 0-.87.7-1.57 1.57-1.57zM59.9 9.48c.85 0 1.56.7 1.56 1.57 0 .86-.7 1.57-1.57 1.57-.88 0-1.58-.7-1.58-1.56 0-.87.7-1.57 1.57-1.57zm0 4.04c.85 0 1.56.7 1.56 1.57 0 .87-.7 1.57-1.57 1.57-.88 0-1.58-.7-1.58-1.57 0-.86.7-1.56 1.57-1.56zm0 4.05c.85 0 1.56.7 1.56 1.56 0 .88-.7 1.58-1.57 1.58-.88 0-1.58-.7-1.58-1.57 0-.85.7-1.55 1.57-1.55zm0 7.86c.85 0 1.56.7 1.56 1.58 0 .87-.7 1.57-1.57 1.57-.88 0-1.58-.7-1.58-1.57 0-.87.7-1.57 1.57-1.57zM51.6 9.48c.86 0 1.57.7 1.57 1.57 0 .86-.7 1.57-1.57 1.57-.87 0-1.57-.7-1.57-1.56 0-.87.7-1.57 1.57-1.57zm0 4.04c.86 0 1.57.7 1.57 1.57 0 .87-.7 1.57-1.57 1.57-.87 0-1.57-.7-1.57-1.57 0-.86.7-1.56 1.57-1.56zm0 4.05c.86 0 1.57.7 1.57 1.56 0 .88-.7 1.58-1.57 1.58-.87 0-1.57-.7-1.57-1.57 0-.85.7-1.55 1.57-1.55zm0 3.88c.86 0 1.57.7 1.57 1.56 0 .86-.7 1.56-1.57 1.56-.87 0-1.57-.7-1.57-1.56 0-.87.7-1.57 1.57-1.57zm0 3.98c.86 0 1.57.7 1.57 1.58 0 .87-.7 1.57-1.57 1.57-.87 0-1.57-.7-1.57-1.57 0-.87.7-1.57 1.57-1.57zm-4.04-11.9c.87 0 1.57.7 1.57 1.57 0 .87-.7 1.57-1.57 1.57S46 15.94 46 15.07c0-.86.7-1.56 1.56-1.56zm-8.5-.2c.86 0 1.57.7 1.57 1.56 0 .87-.7 1.57-1.57 1.57-.87 0-1.57-.7-1.57-1.57 0-.86.7-1.56 1.56-1.56zm0 4.03c.86 0 1.57.7 1.57 1.57 0 .87-.7 1.57-1.57 1.57-.87 0-1.57-.7-1.57-1.57 0-.86.7-1.57 1.56-1.57zm-4.04-8.07c.86 0 1.57.7 1.57 1.57 0 .86-.72 1.56-1.58 1.56-.87 0-1.57-.7-1.57-1.57 0-.87.7-1.57 1.57-1.57zm0 4.04c.86 0 1.57.7 1.57 1.56 0 .87-.72 1.57-1.58 1.57-.87 0-1.57-.7-1.57-1.57 0-.86.7-1.56 1.57-1.56zm0 4.03c.86 0 1.57.7 1.57 1.57 0 .87-.72 1.57-1.58 1.57-.87 0-1.57-.7-1.57-1.57 0-.86.7-1.57 1.57-1.57zm0 4.04c.86 0 1.57.7 1.57 1.57 0 .87-.72 1.57-1.58 1.57-.87 0-1.57-.7-1.57-1.56 0-.86.7-1.57 1.57-1.57zm-4.26-8.08c.87 0 1.57.7 1.57 1.56 0 .87-.7 1.57-1.57 1.57-.86 0-1.56-.7-1.56-1.57 0-.86.7-1.56 1.56-1.56zm0 4.03c.87 0 1.57.7 1.57 1.57 0 .87-.7 1.57-1.57 1.57-.86 0-1.56-.7-1.56-1.57 0-.86.7-1.57 1.56-1.57zm0 4.04c.87 0 1.57.7 1.57 1.57 0 .87-.7 1.57-1.57 1.57-.86 0-1.56-.7-1.56-1.56 0-.86.7-1.57 1.56-1.57zm0 4.04c.87 0 1.57.7 1.57 1.58 0 .87-.7 1.57-1.57 1.57-.86 0-1.56-.7-1.56-1.57 0-.87.7-1.57 1.56-1.57zM26.3 9.27c.87 0 1.57.7 1.57 1.57 0 .86-.7 1.56-1.57 1.56-.86 0-1.57-.7-1.57-1.57 0-.87.7-1.57 1.57-1.57zm0 4.04c.87 0 1.57.7 1.57 1.56 0 .87-.7 1.57-1.57 1.57-.86 0-1.57-.7-1.57-1.57 0-.86.7-1.56 1.57-1.56zm0 4.03c.87 0 1.57.7 1.57 1.57 0 .87-.7 1.57-1.57 1.57-.86 0-1.57-.7-1.57-1.57 0-.86.7-1.57 1.57-1.57zm0 4.04c.87 0 1.57.7 1.57 1.57 0 .87-.7 1.57-1.57 1.57-.86 0-1.57-.7-1.57-1.56 0-.86.7-1.57 1.57-1.57zm-4.04-8.08c.87 0 1.57.7 1.57 1.56 0 .87-.7 1.57-1.57 1.57-.86 0-1.57-.7-1.57-1.57 0-.86.7-1.56 1.56-1.56zm0 4.03c.87 0 1.57.7 1.57 1.57 0 .87-.7 1.57-1.57 1.57-.86 0-1.57-.7-1.57-1.57 0-.86.7-1.57 1.56-1.57z"/></g></svg>