<svg xmlns="http://www.w3.org/2000/svg" width="132" height="69"><g fill="#363636"><path d="M12.05.26C6.5.76 1.85 1.86.58 2.93c-.73.62-.73.62-.24 1.16C1 4.8 4.06 5.72 7.6 6.3c4 .67 12.5.7 13.7.05 1.23-.66 1.64-1.4 1.64-2.98 0-1.63-.62-2.42-2.22-2.86-1.45-.4-5.78-.54-8.67-.28zM25.77.5c-.12.27-.25 2.1-.25 4.1 0 4.06.15 3.78-2.2 3.93l-1.03.08-.14 2.55-.12 2.55-1.2.28c-2.57.67-4 2.6-3.78 5.3.13 1.92 1.03 3.34 2.58 4.08 1.1.52 1.47.54 11.24.54 5.55 0 10.14.08 10.2.18.04.13-1.12 9.4-2.6 20.64-1.43 11.23-2.67 21-2.7 21.67-.05 1.6.83 2.6 2.35 2.6 1.24 0 2-.63 2.32-1.9.13-.5 1.5-10.33 3.02-21.82C45 33.82 46.33 24.42 46.4 24.42c.1 0 1.1 1.4 2.2 3.13 2.94 4.63 2.4 4.32 7.64 4.32h4.36v5.63l-5.14.08c-4.72.07-5.2.12-5.88.6-1.57 1.17-1.62 1.43-1.62 11 0 9.52.02 9.78 1.52 11.04l.85.7H81.7l.85-.7c1.5-1.26 1.52-1.52 1.52-11.05 0-9.56-.05-9.82-1.63-10.98-.67-.5-1.16-.55-5.88-.62l-5.13-.08v-5.63h4.36c5.22 0 4.68.3 7.62-4.32 1.1-1.72 2.1-3.13 2.2-3.13.07 0 1.42 9.4 2.94 20.86 1.52 11.5 2.9 21.3 3 21.83.32 1.27 1.1 1.9 2.34 1.9 1.52 0 2.4-1 2.34-2.6-.02-.68-1.26-10.45-2.7-21.68-1.48-11.23-2.64-20.5-2.58-20.64.05-.1 4.64-.18 10.2-.18 9.76 0 10.12-.02 11.23-.54 1.54-.74 2.44-2.16 2.57-4.08.2-2.7-1.2-4.63-3.8-5.3L110 13.7l-.14-2.55-.13-2.54-1.03-.07c-2.35-.15-2.2.13-2.2-3.93 0-2-.12-3.83-.25-4.1-.2-.37-.54-.5-1.37-.5-.6 0-1.23.13-1.42.3-.2.2-.3 1.47-.3 3.94 0 2.47-.1 3.73-.3 3.93-.2.18-.92.3-1.66.3-1.63 0-1.66.06-1.66 3.12v2.28H32.5v-2.3c0-3.05-.02-3.1-1.65-3.1-.75 0-1.47-.13-1.65-.3-.2-.2-.3-1.47-.3-3.94 0-2.47-.1-3.73-.32-3.93-.18-.17-.8-.3-1.42-.3-.82 0-1.16.13-1.37.5zm42.85 40.1c2.9.9 5.4 3.4 6.16 6.18.44 1.54.3 4.2-.28 5.78-.7 1.87-2.7 4-4.57 4.94-1.3.64-1.75.7-3.92.7-2.15 0-2.62-.06-3.9-.7-1.9-.93-3.88-3.07-4.57-4.94-.6-1.57-.73-4.24-.3-5.78.76-2.73 3.26-5.27 6.07-6.17 2.02-.63 3.3-.63 5.32 0z"/><path d="M63.8 44.44c-2.04.92-3.5 3.65-3.07 5.73.77 3.67 4.82 5.55 8 3.7 1.98-1.16 2.98-3.55 2.44-5.78-.57-2.4-2.73-4.15-5.16-4.15-.63 0-1.6.23-2.2.5zM36.1.15c-3.93.67-4.52 1.14-4.52 3.45 0 1.82.46 2.4 2.27 2.95 1.55.47 7.17.52 10.5.13 6.86-.82 11.32-2.54 9.7-3.75-1.27-.9-4.9-1.88-9.06-2.4C42.5.24 37 0 36.1.16zM89.48.26c-6.3.6-11.86 2.08-11.86 3.18 0 1.73 7.84 3.47 15.63 3.5 5.8 0 7.2-.64 7.2-3.34 0-1.83-.62-2.62-2.38-3.1-1.65-.4-5.67-.5-8.6-.24zM112.78.28c-1.78.23-3.02.77-3.43 1.5-.4.76-.3 2.9.15 3.57.93 1.3 1.65 1.46 7.07 1.46 3.66 0 5.8-.12 7.86-.48 3.54-.6 6.6-1.5 7.25-2.23.5-.55.5-.55-.23-1.17C130.1 1.8 125.5.75 119.53.26c-3.48-.3-4.48-.3-6.75.02z"/></g></svg>