<svg xmlns="http://www.w3.org/2000/svg" width="171" height="195"><g fill="#FFF"><path d="M77.7 174.64c-.1-.13-10.5-13-12.62-15.76-1.32-1.73-3.3-2.68-5.6-2.68-2.55 0-4.82 1.17-5.5 1.55l-5.5 2.74c-1.76-.5-5.57-1.96-9.27-6.27-3.27-3.84-3.25-9-3.07-11.1l5.9-5.9c3.08-2.7 2.44-6.5 1.24-8.43l-.22-.3L28.38 110c-1-1.26-2.47-1.94-4.18-1.94-2.85 0-5.88 1.97-6.76 2.6C6.56 118.4 5.86 125.2 5.8 125.95v.4l.06.42c6.4 35.73 26.03 51.14 35.45 58.55 1.16.9 2.15 1.68 2.87 2.3 6.56 5.75 13.76 6.37 16.55 6.37 2.38 0 4.48-.4 6.1-1.17 4.36-2.08 9.42-8 10.86-9.78 2.5-3.06 1.28-6.6.17-8.2l-.16-.2zM63.8 186.5c-.5.25-1.57.5-3.08.5-1.56 0-7.03-.33-11.94-4.63-.86-.75-1.92-1.58-3.14-2.55-8.7-6.83-26.73-21-32.78-53.68.3-.98 1.83-4.94 8.62-9.77.65-.45 1.5-.9 2.12-1.14 2.83 3.57 11.4 14.4 13.5 17.03l-7.53 7.52-.2 1.06c-.08.42-1.9 10.4 4.52 17.94 6.28 7.35 13.24 8.66 14.58 8.85l1.08.16 7.64-3.84.22-.1c.28-.18 1.34-.66 2.07-.66h.08c2.15 2.8 11.1 13.9 12.5 15.62-2.56 3.1-6.17 6.68-8.28 7.7zM137.85 65.82c5.5-5.17 7.16-11.97 5.03-20.78-.2-.86-.85-1.54-1.7-1.8-.83-.26-1.75-.06-2.4.53l-8.22 7.4c-1.44-.8-3.68-2.45-4.47-5.33l6.8-6.73c.94-.93 1-2.44.1-3.43l-.18-.2c-.2-.23-.43-.4-.68-.54-.16-.1-4-2.12-8.83-2.12-4.7 0-8.85 1.93-12 5.57-6 6.93-4.55 15.04-3.53 18.47l-3.5 3.5L94 51.08l4.7-3.28L78.68 34.1l-10.6 10.6L81.8 64.74l3.26-4.7L94.3 70.3 91 73.6c-1.5-.47-3.88-1.05-6.66-1.05-5.43 0-10.24 2.17-13.96 6.36-.27.34-6.6 8.17-2.75 18.63.28.77.93 1.36 1.72 1.56.8.2 1.65 0 2.27-.55l8.3-7.26c1.32.56 3.62 2.07 4.65 5.92l-7.38 7.5c-.65.66-.88 1.6-.63 2.46s.96 1.53 1.84 1.74c.12.02 2.73.62 6.18.62 6.84 0 12.1-2.27 15.25-6.57 3.36-4.6 4.1-9.43 4-13.08l16.2 16.2.18.16c1.53 1.26 4.33 2.73 7.46 2.73 2.23 0 4.63-.75 6.85-2.84l5.53-5.5.1-.12c5-5.36 2.26-11.7.1-14.3L123.3 69.28c1 .1 2.14.18 3.3.18 4.9 0 8.68-1.22 11.25-3.64zm-53.3-13.84l-2.73 3.95-7.28-10.63 4.73-4.73 10.63 7.28-3.95 2.73 14.8 13.3-4.1 4.08 1.2-1.2L84.54 52zM98.1 85.5c.12.3 2.63 7.75-2.3 14.53-2.8 3.8-7.76 4.52-11.42 4.5l4.7-4.78c.57-.57.83-1.4.7-2.18-1.8-10.15-9.76-11.5-10.1-11.54-.72-.1-1.47.1-2.02.6l-6.2 5.42c-.53-5.56 2.4-9.5 2.75-9.93 2.73-3.03 6.14-4.57 10.14-4.57 3.5 0 6.23 1.2 6.25 1.22.94.44 2.06.24 2.8-.5l19-19c.73-.73.94-1.82.53-2.76-.03-.07-3.5-8.33 2.16-14.86 2.2-2.54 4.95-3.83 8.2-3.83 1.24 0 2.4.2 3.38.43l-5.05 5c-.55.54-.82 1.3-.73 2.07 1.02 8.3 8.97 11.08 9.3 11.2.87.28 1.8.1 2.48-.52l6.05-5.44c.38 4.86-1.02 8.55-4.3 11.64-2 1.9-5.36 2.28-7.82 2.28-3.68 0-6.94-.86-6.98-.87-.86-.25-1.8 0-2.43.64L98.7 82.9c-.68.7-.9 1.7-.6 2.6zm5.52 1.84zm-.2-1.12l.04.16-.03-.16zm33.1 10.86l-5.47 5.47c-3.25 2.98-6.9.44-7.58-.08l-18.64-18.65 14.94-15.07-2.04 2.05 18.7 18.7c.47.6 3.1 4.3.1 7.58zm-15.2-28.05h0zm-.85-.15h.07-.07z"/><path d="M104.16 6c-36.4 0-65.92 29.52-65.92 65.92 0 33.52 25.02 61.18 57.4 65.36v26.22s57.44-21.24 71.97-73.62c.1-.28.15-.54.22-.8.1-.44.22-.86.33-1.3l.18-.76c1.13-4.85 1.75-9.9 1.75-15.1 0-36.4-29.5-65.92-65.92-65.92zm57.35 79.42v.06l-.03.13-.12.52-.3 1.16-.1.4-.1.33c-5.55 20.06-18.5 37.7-38.5 52.45-7.37 5.44-14.4 9.46-19.7 12.18V131.12l-6.12-.78c-29.24-3.78-51.3-28.9-51.3-58.42 0-32.5 26.44-58.92 58.93-58.92 32.5 0 58.92 26.43 58.92 58.92 0 4.5-.53 9.05-1.57 13.5z"/></g><path fill="#3A3A3A" d="M54.58 188c-2.8 0-10-.62-16.55-6.37-.72-.62-1.7-1.4-2.86-2.3-9.42-7.4-29.04-22.82-35.45-58.55l-.07-.4.02-.42c.05-.75.75-7.56 11.63-15.3.88-.63 3.9-2.6 6.76-2.6 1.7 0 3.2.68 4.18 1.93l14.67 18.5.23.3c1.2 1.92 1.84 5.72-1.25 8.43l-5.9 5.9c-.17 2.1-.2 7.26 3.1 11.1 3.7 4.3 7.5 5.8 9.27 6.26l5.5-2.75c.67-.38 2.94-1.55 5.5-1.55 2.3 0 4.27.95 5.6 2.68 2.1 2.76 12.5 15.63 12.6 15.76l.16.2c1.12 1.6 2.34 5.15-.16 8.2-1.45 1.78-6.5 7.7-10.87 9.8-1.6.75-3.7 1.16-6.1 1.16zM6.72 120.14c6.05 32.68 24.1 46.85 32.78 53.68 1.23.97 2.3 1.8 3.14 2.55 4.9 4.3 10.38 4.63 11.94 4.63 1.5 0 2.6-.25 3.08-.5 2.1-1 5.73-4.57 8.3-7.67h-.02c-1.4-1.73-10.35-12.83-12.5-15.63h-.08c-.74 0-1.8.48-2.07.65l-.23.1-7.65 3.84-1.08-.17c-1.33-.2-8.3-1.5-14.58-8.85-6.44-7.53-4.6-17.52-4.53-17.94l.2-1.06 7.53-7.52-13.5-17.03c-.6.23-1.47.7-2.12 1.14-6.8 4.83-8.33 8.8-8.62 9.77z"/><path fill="#F0C42E" d="M78.44 103.54c-3.45 0-6.06-.6-6.17-.62-.88-.2-1.58-.87-1.84-1.74s0-1.8.62-2.45l7.38-7.52c-1.03-3.83-3.33-5.34-4.65-5.9l-8.3 7.25c-.62.54-1.47.74-2.26.54-.8-.2-1.45-.8-1.73-1.57-3.86-10.46 2.47-18.3 2.74-18.62 3.72-4.18 8.53-6.35 13.96-6.35 2.78 0 5.16.57 6.66 1.05l16.77-16.76c-1-3.43-2.46-11.54 3.54-18.47 3.14-3.64 7.3-5.56 12-5.56 4.84 0 8.67 2.04 8.83 2.13.25.13.48.3.68.53l.18.2c.9 1 .85 2.5-.1 3.45l-6.8 6.74c.78 2.88 3.02 4.54 4.46 5.33l8.22-7.4c.66-.6 1.57-.8 2.42-.53.84.26 1.48.94 1.7 1.8 2.1 8.8.46 15.6-5.05 20.78-2.56 2.42-6.34 3.64-11.23 3.64-2.8 0-5.32-.4-6.84-.7L97.13 79.4c.73 3.18 1.63 10.62-3.44 17.57-3.14 4.3-8.42 6.57-15.26 6.57zm-.2-5c3.66 0 8.64-.72 11.4-4.5C94.6 87.23 92.1 79.8 92 79.5c-.32-.9-.1-1.92.58-2.6l18.5-18.66c.63-.64 1.56-.9 2.43-.65.02 0 3.28.86 6.97.86 2.46 0 5.8-.4 7.82-2.28 3.28-3.1 4.67-6.78 4.3-11.65l-6.05 5.45c-.67.6-1.62.8-2.47.5-.34-.1-8.3-2.88-9.3-11.18-.1-.77.16-1.53.7-2.08l5.06-5c-.98-.23-2.14-.4-3.37-.4-3.25 0-6.02 1.28-8.22 3.8-5.65 6.55-2.2 14.8-2.15 14.9.4.93.2 2.02-.53 2.75l-19 19c-.74.74-1.87.94-2.82.5-.02 0-2.73-1.22-6.25-1.22-4 0-7.4 1.53-10.12 4.56-.35.46-3.3 4.4-2.76 9.95l6.2-5.43c.56-.5 1.3-.7 2.03-.6.33.06 8.3 1.4 10.08 11.54.14.8-.1 1.6-.68 2.2l-4.7 4.78z"/><g fill="#3A3A3A"><path d="M78.92 54.02l9.24 10.3 3.54-3.55-13.3-14.8-2.72 3.95L68.4 39.3l4.73-4.73 10.63 7.27-3.95 2.74 14.8 13.3 3.54-3.56-10.28-9.23 4.72-3.28L72.53 28.1l-10.6 10.6 13.73 20.04M117.15 63.28c-1.42-.15-2.64-.36-3.52-.53l-2.03 2.05 18.7 18.7c.46.6 3.1 4.3.1 7.58l-5.5 5.47c-3.24 2.98-6.9.44-7.57-.08L98.7 77.82l-1.57 1.58c.24 1.07.5 2.63.55 4.48l16.22 16.22.17.16c1.52 1.26 4.32 2.73 7.45 2.73 2.23-.02 4.63-.76 6.86-2.84l5.5-5.5.12-.12c5-5.36 2.25-11.7.1-14.3l-16.95-16.96z"/></g><path fill="#3A3A3A" d="M98.02 7c32.5 0 58.92 26.43 58.92 58.92 0 4.5-.52 9.05-1.57 13.5v.06l-.04.13-.12.52c-.08.38-.18.75-.3 1.16l-.1.4-.08.33c-5.56 20.06-18.52 37.7-38.5 52.45-7.38 5.44-14.4 9.46-19.72 12.17v-21.5l-6.1-.8c-29.25-3.76-51.3-28.88-51.3-58.4C39.1 33.42 65.53 7 98.02 7m0-7C61.62 0 32.1 29.5 32.1 65.92c0 33.52 25.02 61.17 57.4 65.36v26.22s57.44-21.24 71.97-73.62l.2-.8c.12-.44.24-.86.34-1.3l.2-.76c1.13-4.85 1.75-9.9 1.75-15.1C163.95 29.52 134.43 0 98.02 0z"/></svg>